<svg xmlns="http://www.w3.org/2000/svg" version="1.1" xmlns:xlink="http://www.w3.org/1999/xlink" xmlns:svgjs="http://svgjs.com/svgjs" width="72" height="72"><svg id="SvgjsSvg1005" viewBox="0 0 72 72" xmlns="http://www.w3.org/2000/svg">
  <g id="SvgjsG1004">
    <polygon fill="#F1B31C" stroke="none" points="26.1808,20.1808 38.75,32.75 51.3192,45.3192 29.7894,54.2798 8.2597,63.2403 17.2202,41.7106" data-darkreader-inline-fill="" data-darkreader-inline-stroke="" style="--darkreader-inline-fill: #8a6409; --darkreader-inline-stroke: none;"></polygon>
    <polygon fill="#FCEA2B" stroke="none" points="40,35 25.6924,20.6692 16.3914,42.5394 7.0905,64.4095" data-darkreader-inline-fill="" data-darkreader-inline-stroke="" style="--darkreader-inline-fill: #857a02; --darkreader-inline-stroke: none;"></polygon>
    <polygon fill="#EA5A47" stroke="none" points="15.2238,45.2849 26.2858,56.3469 20.7548,58.5984 12.9576,50.8012" data-darkreader-inline-fill="" data-darkreader-inline-stroke="" style="--darkreader-inline-fill: #eb6250; --darkreader-inline-stroke: none;"></polygon>
    <polygon fill="#D22F27" stroke="none" points="17.3429,55.2475 20.7548,58.5984 26.2858,56.3469 21.4849,51.546" data-darkreader-inline-fill="" data-darkreader-inline-stroke="" style="--darkreader-inline-fill: #dc4841; --darkreader-inline-stroke: none;"></polygon>
    <polygon fill="#EA5A47" stroke="none" points="20.8045,32.1625 27.5011,38.8591 39.2002,50.5583 32.9273,53.4217 24.7555,45.2498 18.1504,38.6447" data-darkreader-inline-fill="" data-darkreader-inline-stroke="" style="--darkreader-inline-fill: #eb6250; --darkreader-inline-stroke: none;"></polygon>
    <polygon fill="#D22F27" stroke="none" points="26.5369,47.0312 32.9273,53.4216 39.2003,50.5582 31.3616,42.7197" data-darkreader-inline-fill="" data-darkreader-inline-stroke="" style="--darkreader-inline-fill: #dc4841; --darkreader-inline-stroke: none;"></polygon>
    <ellipse cx="30.2951" cy="14.4579" rx="2" ry="1.9708" fill="#8967aa" stroke="none" data-darkreader-inline-fill="" data-darkreader-inline-stroke="" style="--darkreader-inline-fill: #9374b1; --darkreader-inline-stroke: none;"></ellipse>
    <ellipse cx="60.2951" cy="18.4579" rx="2" ry="1.9708" fill="#f1b31c" stroke="none" data-darkreader-inline-fill="" data-darkreader-inline-stroke="" style="--darkreader-inline-fill: #f2ba30; --darkreader-inline-stroke: none;"></ellipse>
    <ellipse cx="57.2951" cy="39.4579" rx="2" ry="1.9708" fill="#d22f27" stroke="none" data-darkreader-inline-fill="" data-darkreader-inline-stroke="" style="--darkreader-inline-fill: #dc4841; --darkreader-inline-stroke: none;"></ellipse>
  </g>
  <g id="SvgjsG1003"></g>
  <g id="SvgjsG1002"></g>
  <g id="SvgjsG1001"></g>
  <g id="SvgjsG1000">
    <polyline fill="none" stroke="#000000" stroke-linecap="round" stroke-linejoin="round" stroke-miterlimit="10" stroke-width="2" points="50.6626,45.6395 50.8308,45.8076 28.9606,55.1086 7.0904,64.4096 16.3914,42.5394 25.6923,20.6692" data-darkreader-inline-stroke="" style="--darkreader-inline-stroke: #e8e6e3;"></polyline>
    <polyline fill="none" stroke="#000000" stroke-linecap="round" stroke-linejoin="round" stroke-miterlimit="10" stroke-width="2" points="25.801,20.7779 38.2616,33.2384 50.6626,45.6395" data-darkreader-inline-stroke="" style="--darkreader-inline-stroke: #e8e6e3;"></polyline>
    <line x1="25.6923" x2="25.801" y1="20.6692" y2="20.7779" fill="none" stroke="#000000" stroke-linecap="round" stroke-linejoin="round" stroke-miterlimit="10" stroke-width="2" data-darkreader-inline-stroke="" style="--darkreader-inline-stroke: #8c8273;"></line>
    <path fill="none" stroke="#000000" stroke-linecap="round" stroke-linejoin="round" stroke-miterlimit="10" stroke-width="2" d="M46.4905,7.3671c0.2347,0.4487,0.4027,0.943,0.4897,1.473c0.451,2.7473-1.447,5.4141-4.2392,5.9565" data-darkreader-inline-stroke="" style="--darkreader-inline-stroke: #e8e6e3;"></path>
    <path fill="none" stroke="#000000" stroke-linecap="round" stroke-linejoin="round" stroke-miterlimit="10" stroke-width="2" d="M42.9327,14.7763c-0.5049,0.0384-1.0133,0.1573-1.509,0.364c-2.5697,1.0713-3.828,4.093-2.8105,6.7492" data-darkreader-inline-stroke="" style="--darkreader-inline-stroke: #e8e6e3;"></path>
    <path fill="none" stroke="#000000" stroke-linecap="round" stroke-linejoin="round" stroke-miterlimit="10" stroke-width="2" d="M61.7928,26.7168c-0.0987,0.4967-0.2778,0.987-0.5425,1.4544c-1.372,2.4225-4.5229,3.309-7.0378,1.98" data-darkreader-inline-stroke="" style="--darkreader-inline-stroke: #e8e6e3;"></path>
    <path fill="none" stroke="#000000" stroke-linecap="round" stroke-linejoin="round" stroke-miterlimit="10" stroke-width="2" d="M54.3745,30.2558c-0.4173-0.2868-0.8878-0.513-1.4036-0.663c-2.6733-0.7775-5.5486,0.7867-6.4223,3.4936" data-darkreader-inline-stroke="" style="--darkreader-inline-stroke: #e8e6e3;"></path>
  </g>
</svg><style>@media (prefers-color-scheme: light) { :root { filter: none; } }
</style></svg>